<?xml version="1.0"?>
<svg version="1.1" baseProfile="tiny-ps" viewBox="0 0 300 300" xmlns="http://www.w3.org/2000/svg" xmlns:xlink="http://www.w3.org/1999/xlink">
  <title>Verified</title>
  <g>
    <g fill="#fdfefd" transform="matrix(.1 0 0 -.1 0 300)">
      <path d="M0 1500V0h3000v3000H0V1500z"/>
    </g>
    <g fill="#c8f1fb" transform="matrix(.1 0 0 -.1 0 300)">
      <path d="M1346 2490c-252-40-453-152-626-348l-65-74-40-71c-79-139-119-266-133-422l-7-80 7-95 8-95 20-80 21-80 38-80c50-105 96-176 166-255l58-65 91-69 91-69 70-33c100-46 186-72 295-90l95-16 95 5c117 7 210 26 321 67l86 31 94 60 94 61 85 87 86 86 51 85c61 101 104 205 129 315l19 80v140l-1 140-13 58-12 57-25 30-25 30-40 11-39 12-39-12-40-11-25-30-25-31-7-34-6-35 11-45 11-44v-193l-21-81c-54-212-187-377-385-480l-72-37-88-21-89-21-105 5-105 5-58 16c-32 9-92 33-133 53l-76 37-64 53-64 53-54 73c-86 116-124 209-146 360l-12 78 12 92 12 92 24 63c13 35 38 91 56 125l33 62 85 85 85 85 57 34c32 18 97 47 145 63l88 31 106 5 106 5 79-18 79-17 84-39 84-39h68l29 15c38 19 68 60 76 100l6 33-20 44-19 44-81 42c-134 70-257 101-427 107l-110 4-59-9zM2328 2296c-14-9-88-80-163-157s-203-207-284-290c-144-146-311-327-400-433-24-28-47-52-50-52-4 0-15 15-26 33-31 53-129 178-188 239l-55 57-27 7c-14 3-45 4-68 1l-42-6-32-35-32-34-7-37-6-36 16-37c10-20 41-62 70-93 75-80 134-166 207-302l63-119 30-15 30-15h42l43 1 22 13c12 7 69 69 126 138 185 220 337 384 670 720l252 255 10 28c15 40 14 83-4 118l-16 30-32 19-32 20h-90l-27-18z"/>
    </g>
  </g>
</svg>
