<?xml version="1.0"?><svg version="1.2" baseProfile="tiny-ps" viewBox="0 0 300 300" xmlns="http://www.w3.org/2000/svg" xmlns:xlink="http://www.w3.org/1999/xlink"><title>Verified</title><g><g fill="#fdfefd" transform="matrix(.1 0 0 -.1 0 300)"><path d="M0 1500V0h3000v3000H0V1500z"/></g><g fill="#c8f1fb" transform="matrix(.1 0 0 -.1 0 300)"><path d="M1346 2490c-252-40-453-152-626-348l-65-74-40-71c-79-139-119-266-133-422l-7-80 7-95 8-95 20-80 21-80 38-80c50-105 96-176 166-255l58-65 91-69 91-69 70-33c100-46 186-72 295-90l95-16 95 5c117 7 210 26 321 67l86 31 94 60 94 61 85 87 86 86 51 85c61 101 104 205 129 315l19 80v140l-1 140-13 58-12 57-25 30-25 30-40 11-39 12-39-12-40-11-25-30-25-31-7-34-6-35 11-45 11-44v-193l-21-81c-54-212-187-377-385-480l-72-37-88-21-89-21-105 5-105 5-58 16c-32 9-92 33-133 53l-76 37-64 53-64 53-54 73c-86 116-124 209-146 360l-12 78 12 92 12 92 24 63c13 35 38 91 56 125l33 62 85 85 85 85 57 34c32 18 97 47 145 63l88 31 106 5 106 5 79-18 79-17 84-39 84-39h68l29 15c38 19 68 60 76 100l6 33-20 44-19 44-81 42c-134 70-257 101-427 107l-110 4-59-9zm942-188c-14-9-88-80-163-157s-203-207-284-290c-144-146-311-327-400-433-24-28-47-52-50-52-4 0-15 15-26 33-31 53-129 178-188 239l-55 57-27 7c-14 3-45 4-68 1l-42-6-32-35-32-34-7-37-6-36 16-37c10-20 41-62 70-93 75-80 134-166 207-302l63-119 30-15 30-15h42l43 1 22 13c12 7 69 69 126 138 185 220 337 384 670 720l252 255 10 28c15 40 14 83-4 118l-16 30-32 19-32 20h-90l-27-18z"/></g><g fill="#84d4f2" transform="matrix(.1 0 0 -.1 0 300)"><path d="M1286 2474c-166-37-322-114-450-221l-69-58-63-80-64-80-44-85c-46-89-76-175-98-275l-13-60 1-135 1-135 17-72c83-373 354-656 732-765l79-23 175 1h175l78 22c161 44 319 135 440 251 154 147 251 323 293 531l17 84-6 150-5 151-11 37-11 36-36 31-35 31h-101l-41-40-40-40 9-88c5-48 9-127 8-177l-1-90-13-55c-30-131-107-265-206-363l-59-59-70-43-70-44-77-25c-42-14-111-31-154-37l-78-11-60 7c-149 16-284 67-395 151l-61 45-56 67-55 67-44 90-44 90-15 77-16 77v156l15 70c59 280 266 496 546 571l64 17h220l70-17c39-10 104-35 145-54l74-37 38 1 38 1 25 17c14 10 35 31 45 49l20 32v70l-20 33-21 34-92 43c-51 24-128 53-172 66l-80 21-155 4-155 4-69-16zm1016-171-32-16-223-226c-245-251-451-469-570-606-44-50-82-91-85-92-4-2-25 25-47 60-53 82-175 229-214 256-17 12-46 25-65 28l-33 5-38-18-37-17-19-31-19-31v-80l18-27c9-14 46-59 81-99 77-88 123-158 191-290l51-100 32-20 32-19h66l29 15 28 14 108 128c203 239 385 434 721 774l213 215v111l-21 27c-43 54-106 69-167 39z"/></g><g fill="#3bb5eb" transform="matrix(.1 0 0 -.1 0 300)"><path d="M1320 2476c-386-69-697-354-802-733l-22-78v-175l-1-175 23-85c60-218 195-418 373-550l76-56 87-43 87-42 97-26 97-26 145-1 145-1 80 19c372 85 665 373 756 741l20 80 6 115 5 115-15 86-15 86-18 28-18 28-33 13c-18 8-45 14-60 14h-28l-33-20-33-20-16-37-15-37 11-73c6-41 11-109 11-151v-77l-19-80c-33-137-90-243-184-342-91-97-219-174-342-207l-60-16-95-7-95-6-85 17c-104 21-185 55-272 112l-67 45-69 74-70 75-45 93-45 92-18 70-17 70v190l12 60c52 245 230 455 461 544l75 29 78 12 78 13 87-6c106-8 178-27 275-72l75-35h63l30 16 31 15 19 45 20 44-10 38-11 38-22 21c-45 42-170 96-283 124l-80 20-125 4-125 4-75-13zm1004-167-31-9-279-282c-153-156-357-370-453-476l-174-193-30 48c-47 75-149 203-205 256l-51 47h-86l-33-20-33-20-15-37-16-36 7-33 6-34 70-81c88-103 138-176 208-308l56-104 27-20 27-20h88l21 15c12 8 60 61 108 119 176 210 359 407 816 874l128 130 6 32c12 66-18 122-80 148-39 17-39 17-82 4z"/></g><g fill="#03abfd" transform="matrix(.1 0 0 -.1 0 300)"><path d="M1290 2465c-206-46-375-140-516-286-148-155-223-301-265-514l-19-100v-80c0-198 65-404 178-565 25-36 84-103 131-150l86-86 75-45c97-58 180-94 277-121l78-22h170l170-1 85 23 85 23 85 41c321 153 533 454 570 811l9 92-10 100-10 100-19 42-18 42-31 15-30 16h-78l-37-33-36-33-1-40c-1-21 4-79 10-127l12-88-11-82c-41-309-235-540-531-632l-54-17-125-5-125-5-72 15-72 16-66 30c-36 17-92 48-124 70l-58 40-65 70-66 71-40 78c-47 90-66 142-83 230l-12 64 6 106 6 107 21 70 22 70 45 80c26 43 59 93 74 110 16 16 29 33 29 36 0 11 141 115 200 148 30 16 87 40 125 53l70 23h310l55-19c30-10 90-34 133-53l78-34 41 13 41 13 21 28 21 28v97l-25 28-25 27-80 38c-44 20-116 47-160 59l-80 22-155 4-155 4-65-15zm1025-165c-40-16-609-597-790-805-103-119-127-145-136-145-4 0-31 35-60 78-62 91-129 173-184 224l-39 37-28 6-28 7-35-12-35-12-26-34-27-34 5-45 6-45 48-55c27-30 75-90 107-133l57-77 55-107 55-106 31-26 31-26h33c19 0 45 4 58 9l24 9 64 79c156 193 372 427 699 758 130 132 246 253 258 269l22 29v98l-27 26c-45 41-92 53-138 33z"/></g></g></svg>